<svg xmlns="http://www.w3.org/2000/svg" viewBox="0 0 52.4204 63.7437"><defs><style>.cls-1,.cls-2{fill:none;stroke:#fff;stroke-linecap:round;stroke-miterlimit:10;}.cls-1{stroke-width:5px;}.cls-2{stroke-width:6px;}</style></defs><g id="Слой_2" data-name="Слой 2"><g id="Layer_1" data-name="Layer 1"><polyline class="cls-1" points="32.951 21.024 30.586 30.725 39.31 34.525"/><line class="cls-1" x1="49.9204" y1="21.5116" x2="32.3754" y2="30.1068"/><path class="cls-2" d="M19.7969,36.565l-1.688-2.63a8.7873,8.7873,0,0,1,1.9078-11.61h0a7.0326,7.0326,0,0,0,1.6683-9.062l-5.51-9.3546-.7362.3578A22.0853,22.0853,0,0,0,4.95,33.1952l6.535,14.5208a22.0855,22.0855,0,0,0,30.5586,10.41h0l-5.1612-11.19a6.1612,6.1612,0,0,0-8.2615-2.9736l-3.5752,2.2128"/></g></g></svg>